<svg xmlns="http://www.w3.org/2000/svg" viewBox="0 0 24 24" fill="none">
  <!-- Document avec coin plié -->
  <path d="M7 3h7.2c.3 0 .6.1.8.3l3.7 3.7c.2.2.3.5.3.8V19a2 2 0 0 1-2 2H7a2 2 0 0 1-2-2V5a2 2 0 0 1 2-2z" stroke="#111" stroke-width="1.6" stroke-linejoin="round"></path>
  <path d="M15 3v3a1 1 0 0 0 1 1h3" stroke="#111" stroke-width="1.6" stroke-linecap="round" stroke-linejoin="round"></path>
  <!-- Lignes de texte -->
  <path d="M8.5 9.5h5.5M8.5 12h7M8.5 14.5h4" stroke="#111" stroke-width="1.4" stroke-linecap="round"></path>
  <!-- Sceau -->
  <circle cx="16.5" cy="16.5" r="2.2" stroke="#111" stroke-width="1.6"></circle>
  <!-- Rubans -->
  <path d="M15.4 18.4l-1 2.6 1.9-1 .9 1.3v-2.5" fill="#111"></path>
  <path d="M17.6 18.4l1 2.6-1.9-1-.9 1.3v-2.5" fill="#111"></path>
</svg>
