<svg xmlns="http://www.w3.org/2000/svg" viewBox="0 0 97 97">
  <path fill="#F05133" d="M92.7 44.4L52.6 4.3c-2.5-2.5-6.7-2.5-9.2 0l-9.2 9.2 11.6 11.6c2.7-.9 5.7-.3 7.8 1.8 2 2 2.6 5.1 1.7 7.7l11.2 11.2c2.6-.9 5.7-.3 7.8 1.8 3 3 3 7.9 0 10.9-3 3-7.9 3-10.9 0-2.2-2.2-2.8-5.4-1.7-8.1L49.5 35v29.5c.7.3 1.3.7 1.9 1.3 3 3 3 7.9 0 10.9-3 3-7.9 3-10.9 0-3-3-3-7.9 0-10.9 1-1 2.1-1.6 3.4-2V30.1c-1.3-.4-2.5-1.1-3.4-2.1-2-2-2.6-5-1.8-7.7L28 8.8 4.3 32.6c-2.5 2.5-2.5 6.7 0 9.2l40.1 40.1c2.5 2.5 6.7 2.5 9.2 0l39.1-39.1c2.5-2.5 2.5-6.7 0-9.2z"></path>
</svg>
