<svg xmlns="http://www.w3.org/2000/svg" viewBox="0 0 98 96">
  <path fill="#181717" d="M49 0C22 0 0 22 0 49c0 21.7 14 40.1 33.4 46.6 2.5.5 3.4-1.1 3.4-2.4v-9.2c-13.6 3-16.5-6.6-16.5-6.6-2.3-5.8-5.6-7.3-5.6-7.3-4.6-3.1.4-3 .4-3 5.1.4 7.8 5.3 7.8 5.3 4.5 7.7 11.8 5.5 14.7 4.2.5-3.3 1.8-5.5 3.3-6.8-10.8-1.2-22.1-5.4-22.1-24 0-5.3 1.9-9.6 5-13-0.5-1.2-2.2-6.2.5-12.8 0 0 4.1-1.3 13.5 5a46.8 46.8 0 0 1 24.6 0c9.4-6.3 13.5-5 13.5-5 2.7 6.6 1 11.6.5 12.8 3.1 3.4 5 7.7 5 13 0 18.6-11.3 22.8-22.2 24 1.8 1.5 3.5 4.4 3.5 8.9v13.1c0 1.3.9 2.9 3.4 2.4C84 89 98 70.7 98 49 98 22 76 0 49 0z"></path>
</svg>
